<svg width="14" height="14" viewBox="0 0 14 14" fill="none" xmlns="http://www.w3.org/2000/svg">
<path d="M7.00002 6.19888e-06C3.1344 6.19888e-06 2.43187e-05 3.21563 2.43187e-05 7.17813C2.43187e-05 10.35 2.00627 13.0375 4.78752 13.9875C4.82654 13.996 4.86635 14.0002 4.90627 14C5.16565 14 5.26565 13.8094 5.26565 13.6438C5.26565 13.4719 5.2594 13.0219 5.25627 12.4219C5.02472 12.4762 4.78785 12.5045 4.55002 12.5063C3.20315 12.5063 2.8969 11.4594 2.8969 11.4594C2.57815 10.6313 2.11877 10.4094 2.11877 10.4094C1.5094 9.98126 2.11565 9.96876 2.16252 9.96876H2.16565C2.86877 10.0313 3.23752 10.7125 3.23752 10.7125C3.58752 11.325 4.05627 11.4969 4.47502 11.4969C4.75191 11.4913 5.02451 11.4275 5.27502 11.3094C5.33752 10.8469 5.51877 10.5313 5.71877 10.35C4.16565 10.1688 2.53127 9.55313 2.53127 6.80313C2.53127 6.01876 2.80315 5.37813 3.25002 4.87813C3.17815 4.69688 2.93752 3.96563 3.31877 2.97813C3.36991 2.96588 3.42247 2.96062 3.47502 2.96251C3.72815 2.96251 4.30002 3.05938 5.24377 3.71563C6.3905 3.39477 7.6033 3.39477 8.75002 3.71563C9.69377 3.05938 10.2656 2.96251 10.5188 2.96251C10.5713 2.96062 10.6239 2.96588 10.675 2.97813C11.0563 3.96563 10.8156 4.69688 10.7438 4.87813C11.1906 5.38126 11.4625 6.02188 11.4625 6.80313C11.4625 9.55938 9.82502 10.1656 8.26565 10.3438C8.51565 10.5656 8.74065 11.0031 8.74065 11.6719C8.74065 12.6313 8.73127 13.4063 8.73127 13.6406C8.73127 13.8094 8.82815 14 9.08752 14C9.12951 14.0002 9.1714 13.996 9.21252 13.9875C11.9969 13.0375 14 10.3469 14 7.17813C14 3.21563 10.8656 6.19888e-06 7.00002 6.19888e-06Z" fill="#666666"/>
</svg>
