<svg width="102" height="101" viewBox="0 0 102 101" fill="none" xmlns="http://www.w3.org/2000/svg">
<path d="M47.871 68.9585H0.935303V90.8619C0.935303 93.6405 1.92617 96.0185 3.9079 97.9961C5.88963 99.9736 8.2677 100.965 11.0421 100.969H47.871V68.9585ZM54.1291 68.9585V100.969H90.958C93.7366 100.969 96.1147 99.9778 98.0922 97.9961C100.07 96.0144 101.061 93.6363 101.065 90.8619V68.9585H54.1291ZM47.871 62.7004V30.684H0.935303V62.7004H47.871ZM54.1291 62.7004H101.065V30.684H54.1291V62.7004ZM0.935303 24.4259H101.065V10.946C101.065 8.1674 100.074 5.78932 98.0922 3.81177C96.1105 1.83421 93.7345 0.843344 90.9642 0.839172H11.0421C8.26353 0.839172 5.88546 1.83004 3.9079 3.81177C1.93034 5.7935 0.939475 8.17157 0.935303 10.946V24.4259Z" fill="#32719D"/>
</svg>
