<svg width="76" height="101" viewBox="0 0 76 101" fill="none" xmlns="http://www.w3.org/2000/svg">
<path d="M22.5175 64.3908C19.1256 64.3908 17.3108 67.9141 17.3108 74.4789C17.3108 75.0337 17.3233 75.5594 17.3483 76.0559L27.1047 68.9029C26.3162 65.9366 24.7579 64.3971 22.5175 64.3971V64.3908ZM17.9366 80.0861C18.7251 83.0399 20.2646 84.5794 22.5175 84.5794C25.8969 84.5794 27.7117 81.0561 27.7117 74.4789C27.7117 73.9407 27.6992 73.4192 27.6742 72.9143L17.9366 80.0861Z" fill="#32719D"/>
<path d="M46.0918 0.101379H12.9677C9.64823 0.101379 6.46469 1.42005 4.11744 3.76729C1.7702 6.11453 0.451538 9.29807 0.451538 12.6176V87.7147C0.451538 91.0342 1.7702 94.2177 4.11744 96.565C6.46469 98.9122 9.64823 100.231 12.9677 100.231H63.0325C66.352 100.231 69.5355 98.9122 71.8828 96.565C74.23 94.2177 75.5487 91.0342 75.5487 87.7147V29.5582C75.5483 27.8986 74.8888 26.3071 73.715 25.1338L50.5163 1.935C49.3429 0.7613 47.7514 0.101734 46.0918 0.101379ZM47.3872 22.0047V9.48852L66.1615 28.2628H53.6453C51.9856 28.2628 50.3938 27.6035 49.2202 26.4299C48.0466 25.2562 47.3872 23.6645 47.3872 22.0047ZM32.0549 74.4788C32.0549 83.334 28.6255 88.2842 22.5176 88.2842C16.3972 88.2779 12.9677 83.334 12.9677 74.4788C12.9677 65.6424 16.3972 60.6923 22.5176 60.6923C28.6255 60.6923 32.0549 65.6361 32.0549 74.4788ZM55.867 83.9911V87.7147H37.0927V83.9911H44.4835V65.8114H44.1706L37.0614 70.4862V66.1806L44.5085 61.2617H48.8266V83.9974L55.867 83.9911Z" fill="#32719D"/>
</svg>
