<svg width="78" height="102" viewBox="0 0 78 102" fill="none" xmlns="http://www.w3.org/2000/svg">
<path d="M48.75 0.101379H9.75C7.16414 0.101379 4.68419 1.16548 2.85571 3.0596C1.02723 4.95372 0 7.52269 0 10.2014V91.0014C0 93.6801 1.02723 96.249 2.85571 98.1432C4.68419 100.037 7.16414 101.101 9.75 101.101H68.25C70.8359 101.101 73.3158 100.037 75.1443 98.1432C76.9728 96.249 78 93.6801 78 91.0014V30.4014L48.75 0.101379ZM29.2402 64.5798H23.8631V81.1135H19.3927V64.5798H14.1034V60.7014H29.2402V64.5798ZM42.5246 81.1135L40.7452 77.4219C40.014 75.9978 39.546 74.9373 38.9951 73.7556H38.9317C38.5271 74.9323 38.0299 75.9928 37.4107 77.4219L35.7776 81.1135H30.6833L36.3919 70.7862L30.888 60.7014H36.0067L37.7325 64.4283C38.3224 65.6655 38.7562 66.6654 39.2242 67.8168H39.2876C39.7556 66.5139 40.1359 65.6049 40.6331 64.4283L42.2955 60.7014H47.3801L41.8275 70.665L47.6677 81.1135H42.5246ZM63.8966 64.5798H58.5146V81.1135H54.0443V64.5798H48.7549V60.7014H63.8918L63.8966 64.5798ZM48.75 35.4514H43.875V10.2014L68.25 35.4514H48.75Z" fill="#D25628"/>
</svg>
